<svg width="122px" height="110px" viewBox="0 0 122 110" version="1.1" xmlns="http://www.w3.org/2000/svg" xmlns:xlink="http://www.w3.org/1999/xlink">
							    <g id="Light" stroke="none" stroke-width="1" fill="none" fill-rule="evenodd">
							        <g id="Light-ICO" transform="translate(-449.000000, -2376.000000)">
							            <g id="Features" transform="translate(0.000000, 2189.000000)">
							                <g id="Group-37" transform="translate(375.000000, 58.000000)">
							                    <g id="Group-36" transform="translate(0.000000, 83.000000)">
							                        <g id="1">
							                            <g id="Group-34" transform="translate(30.000000, 47.000000)">
							                                <g id="Icon" transform="translate(45.000000, 0.000000)">
							                                    <path d="M112.258065,81.2903226 L112.258065,108.387097 L11.6129032,108.387097 C5.19870968,108.387097 0,103.188387 0,96.7741935 L0,15.483871" id="Stroke-1" stroke="#EF7441"></path>
							                                    <path d="M25.1612903,3.87096774 L11.6129032,3.87096774 C5.19870968,3.87096774 0,9.06967742 0,15.483871 C0,21.896129 5.19870968,27.0967742 11.6129032,27.0967742 L112.258065,27.0967742 L112.258065,54.1935484" id="Stroke-3" stroke="#EF7441"></path>
							                                    <polyline id="Stroke-5" stroke="#EF7441" points="112.258065 21.2903226 112.258065 3.87096774 102.580645 3.87096774"></polyline>
							                                    <path d="M83.2258065,67.7419355 C83.2258065,70.9490323 80.6245161,73.5483871 77.4193548,73.5483871 C74.2141935,73.5483871 71.6129032,70.9490323 71.6129032,67.7419355 C71.6129032,64.5348387 74.2141935,61.9354839 77.4193548,61.9354839 C80.6245161,61.9354839 83.2258065,64.5348387 83.2258065,67.7419355 Z" id="Stroke-7" stroke="#EF7441"></path>
							                                    <path d="M102.580645,34.8387097 L98.7096774,34.8387097" id="Stroke-9" stroke="#EF7441"></path>
							                                    <path d="M94.8387097,34.8387097 L90.9677419,34.8387097" id="Stroke-11" stroke="#EF7441"></path>
							                                    <path d="M87.0967742,34.8387097 L83.2258065,34.8387097" id="Stroke-13" stroke="#EF7441"></path>
							                                    <path d="M79.3548387,34.8387097 L75.483871,34.8387097" id="Stroke-15" stroke="#EF7441"></path>
							                                    <path d="M71.6129032,34.8387097 L67.7419355,34.8387097" id="Stroke-17" stroke="#EF7441"></path>
							                                    <path d="M63.8709677,34.8387097 L60,34.8387097" id="Stroke-19" stroke="#EF7441"></path>
							                                    <path d="M56.1290323,34.8387097 L52.2580645,34.8387097" id="Stroke-21" stroke="#EF7441"></path>
							                                    <path d="M48.3870968,34.8387097 L44.516129,34.8387097" id="Stroke-23" stroke="#EF7441"></path>
							                                    <path d="M40.6451613,34.8387097 L36.7741935,34.8387097" id="Stroke-25" stroke="#EF7441"></path>
							                                    <path d="M32.9032258,34.8387097 L29.0322581,34.8387097" id="Stroke-27" stroke="#EF7441"></path>
							                                    <path d="M25.1612903,34.8387097 L21.2903226,34.8387097" id="Stroke-29" stroke="#EF7441"></path>
							                                    <path d="M17.4193548,34.8387097 L13.5483871,34.8387097" id="Stroke-31" stroke="#EF7441"></path>
							                                    <path d="M102.580645,34.8387097 L98.7096774,34.8387097" id="Stroke-33" stroke="#EF7441"></path>
							                                    <path d="M94.8387097,34.8387097 L90.9677419,34.8387097" id="Stroke-35" stroke="#EF7441"></path>
							                                    <path d="M87.0967742,34.8387097 L83.2258065,34.8387097" id="Stroke-37" stroke="#EF7441"></path>
							                                    <path d="M79.3548387,34.8387097 L75.483871,34.8387097" id="Stroke-39" stroke="#EF7441"></path>
							                                    <path d="M71.6129032,34.8387097 L67.7419355,34.8387097" id="Stroke-41" stroke="#EF7441"></path>
							                                    <path d="M63.8709677,34.8387097 L60,34.8387097" id="Stroke-43" stroke="#EF7441"></path>
							                                    <path d="M56.1290323,34.8387097 L52.2580645,34.8387097" id="Stroke-45" stroke="#EF7441"></path>
							                                    <path d="M48.3870968,34.8387097 L44.516129,34.8387097" id="Stroke-47" stroke="#EF7441"></path>
							                                    <path d="M40.6451613,34.8387097 L36.7741935,34.8387097" id="Stroke-49" stroke="#EF7441"></path>
							                                    <path d="M32.9032258,34.8387097 L29.0322581,34.8387097" id="Stroke-51" stroke="#EF7441"></path>
							                                    <path d="M25.1612903,34.8387097 L21.2903226,34.8387097" id="Stroke-53" stroke="#EF7441"></path>
							                                    <path d="M17.4193548,34.8387097 L13.5483871,34.8387097" id="Stroke-55" stroke="#EF7441"></path>
							                                    <path d="M102.580645,100.645161 L98.7096774,100.645161" id="Stroke-57" stroke="#EF7441"></path>
							                                    <path d="M94.8387097,100.645161 L90.9677419,100.645161" id="Stroke-59" stroke="#EF7441"></path>
							                                    <path d="M87.0967742,100.645161 L83.2258065,100.645161" id="Stroke-61" stroke="#EF7441"></path>
							                                    <path d="M79.3548387,100.645161 L75.483871,100.645161" id="Stroke-63" stroke="#EF7441"></path>
							                                    <path d="M71.6129032,100.645161 L67.7419355,100.645161" id="Stroke-65" stroke="#EF7441"></path>
							                                    <path d="M63.8709677,100.645161 L60,100.645161" id="Stroke-67" stroke="#EF7441"></path>
							                                    <path d="M56.1290323,100.645161 L52.2580645,100.645161" id="Stroke-69" stroke="#EF7441"></path>
							                                    <path d="M48.3870968,100.645161 L44.516129,100.645161" id="Stroke-71" stroke="#EF7441"></path>
							                                    <path d="M40.6451613,100.645161 L36.7741935,100.645161" id="Stroke-73" stroke="#EF7441"></path>
							                                    <path d="M32.9032258,100.645161 L29.0322581,100.645161" id="Stroke-75" stroke="#EF7441"></path>
							                                    <path d="M25.1612903,100.645161 L21.2903226,100.645161" id="Stroke-77" stroke="#EF7441"></path>
							                                    <path d="M17.4193548,100.645161 L13.5483871,100.645161" id="Stroke-79" stroke="#EF7441"></path>
							                                    <path d="M102.580645,100.645161 L98.7096774,100.645161" id="Stroke-81" stroke="#EF7441"></path>
							                                    <path d="M94.8387097,100.645161 L90.9677419,100.645161" id="Stroke-83" stroke="#EF7441"></path>
							                                    <path d="M87.0967742,100.645161 L83.2258065,100.645161" id="Stroke-85" stroke="#EF7441"></path>
							                                    <path d="M79.3548387,100.645161 L75.483871,100.645161" id="Stroke-87" stroke="#EF7441"></path>
							                                    <path d="M71.6129032,100.645161 L67.7419355,100.645161" id="Stroke-89" stroke="#EF7441"></path>
							                                    <path d="M63.8709677,100.645161 L60,100.645161" id="Stroke-91" stroke="#EF7441"></path>
							                                    <path d="M56.1290323,100.645161 L52.2580645,100.645161" id="Stroke-93" stroke="#EF7441"></path>
							                                    <path d="M48.3870968,100.645161 L44.516129,100.645161" id="Stroke-95" stroke="#EF7441"></path>
							                                    <path d="M40.6451613,100.645161 L36.7741935,100.645161" id="Stroke-97" stroke="#EF7441"></path>
							                                    <path d="M32.9032258,100.645161 L29.0322581,100.645161" id="Stroke-99" stroke="#EF7441"></path>
							                                    <path d="M25.1612903,100.645161 L21.2903226,100.645161" id="Stroke-101" stroke="#EF7441"></path>
							                                    <path d="M17.4193548,100.645161 L13.5483871,100.645161" id="Stroke-103" stroke="#EF7441"></path>
							                                    <path d="M112.258065,42.5806452 L114.193548,42.5806452 C117.39871,42.5806452 120,45.18 120,48.3870968 C120,51.5941935 117.39871,54.1935484 114.193548,54.1935484 L77.4193548,54.1935484 C69.9367742,54.1935484 63.8709677,60.2593548 63.8709677,67.7419355 C63.8709677,75.2245161 69.9367742,81.2903226 77.4193548,81.2903226 L114.193548,81.2903226 C117.39871,81.2903226 120,78.6909677 120,75.483871 L120,48.3870968" id="Stroke-105" stroke="#464FFF"></path>
							                                    <polyline id="Stroke-107" stroke="#EF7441" points="30.9677419 11.6129032 30.9677419 0 96.7741935 0 96.7741935 9.67741935"></polyline>
							                                    <polyline id="Stroke-109" stroke="#EF7441" points="85.1612903 17.4193548 85.1612903 11.6129032 19.3548387 11.6129032 19.3548387 17.4193548"></polyline>
							                                    <path d="M112.258065,15.483871 L90.9677419,15.483871" id="Stroke-111" stroke="#EF7441"></path>
							                                    <path d="M54.1935484,0 L54.1935484,5.80645161" id="Stroke-113" stroke="#EF7441"></path>
							                                    <path d="M61.9354839,0 L61.9354839,5.80645161" id="Stroke-115" stroke="#EF7441"></path>
							                                    <path d="M69.6774194,0 L69.6774194,5.80645161" id="Stroke-117" stroke="#EF7441"></path>
							                                    <path d="M77.4193548,0 L77.4193548,5.80645161" id="Stroke-119" stroke="#EF7441"></path>
							                                    <path d="M85.1612903,0 L85.1612903,5.80645161" id="Stroke-121" stroke="#EF7441"></path>
							                                    <path d="M38.7096774,0 L38.7096774,5.80645161" id="Stroke-123" stroke="#EF7441"></path>
							                                    <path d="M42.5806452,11.6129032 L42.5806452,17.4193548" id="Stroke-125" stroke="#EF7441"></path>
							                                    <path d="M50.3225806,11.6129032 L50.3225806,17.4193548" id="Stroke-127" stroke="#EF7441"></path>
							                                    <path d="M58.0645161,11.6129032 L58.0645161,17.4193548" id="Stroke-129" stroke="#EF7441"></path>
							                                    <path d="M65.8064516,11.6129032 L65.8064516,17.4193548" id="Stroke-131" stroke="#EF7441"></path>
							                                    <path d="M73.5483871,11.6129032 L73.5483871,17.4193548" id="Stroke-133" stroke="#EF7441"></path>
							                                </g>
							                            </g>
							                        </g>
							                    </g>
							                </g>
							            </g>
							        </g>
							    </g>
							</svg>