<svg width="122px" height="122px" viewBox="0 0 122 122" version="1.1" xmlns="http://www.w3.org/2000/svg" xmlns:xlink="http://www.w3.org/1999/xlink">
							    <g id="Light" stroke="none" stroke-width="1" fill="none" fill-rule="evenodd">
							        <g id="Light-ICO" transform="translate(-1049.000000, -2382.000000)">
							            <g id="Features" transform="translate(0.000000, 2189.000000)">
							                <g id="Group-37" transform="translate(375.000000, 58.000000)">
							                    <g id="Group-36" transform="translate(0.000000, 83.000000)">
							                        <g id="3" transform="translate(600.000000, 0.000000)">
							                            <g id="Group-33" transform="translate(30.000000, 53.000000)">
							                                <g id="Icon" transform="translate(45.000000, 0.000000)">
							                                    <g id="Group-5" stroke="#F07F51">
							                                        <polyline id="Stroke-1" points="48.3870968 112.258065 0 112.258065 0 0 120 0 120 75.483871"></polyline>
							                                        <path d="M0,15.483871 L120,15.483871" id="Stroke-3"></path>
							                                    </g>
							                                    <path d="M5.80645161,7.74193548 L9.67741935,7.74193548" id="Stroke-6" stroke="#F07F51"></path>
							                                    <path d="M13.5483871,7.74193548 L17.4193548,7.74193548" id="Stroke-7" stroke="#F07F51"></path>
							                                    <path d="M21.2903226,7.74193548 L25.1612903,7.74193548" id="Stroke-8" stroke="#F07F51"></path>
							                                    <path d="M30.9677419,0 L30.9677419,15.483871" id="Stroke-9" stroke="#F07F51"></path>
							                                    <path d="M36.7741935,7.74193548 L114.193548,7.74193548" id="Stroke-11" stroke="#F07F51"></path>
							                                    <polyline id="Stroke-12" stroke="#F07F51" points="48.3870968 104.516129 7.74193548 104.516129 7.74193548 23.2258065 112.258065 23.2258065 112.258065 75.483871"></polyline>
							                                    <g id="Group-47" transform="translate(19.354839, 38.709677)">
							                                        <path d="M46.4516129,61.9354839 L48.3870968,61.9354839 C51.5922581,61.9354839 54.1935484,64.5367742 54.1935484,67.7419355 C54.1935484,70.9470968 51.5922581,73.5483871 48.3870968,73.5483871 L42.5806452,73.5483871 L42.5806452,50.3225806 L46.4516129,50.3225806 C49.6567742,50.3225806 52.2580645,52.923871 52.2580645,56.1290323 C52.2580645,59.3341935 49.6567742,61.9354839 46.4516129,61.9354839 L42.5806452,61.9354839" id="Stroke-13" stroke="#3FD3B8"></path>
							                                        <path d="M73.5483871,48.3870968 L73.5483871,67.7419355 C73.5483871,70.9470968 70.9470968,73.5483871 67.7419355,73.5483871 C64.5367742,73.5483871 61.9354839,70.9470968 61.9354839,67.7419355 L61.9354839,48.3870968" id="Stroke-15" stroke="#3FD3B8"></path>
							                                        <polygon id="Stroke-17" stroke="#3FD3B8" points="87.0967742 69.6774194 87.0967742 75.483871 87.0967742 69.6774194 87.0967742 63.8709677"></polygon>
							                                        <polyline id="Stroke-19" stroke="#3FD3B8" points="92.9032258 48.3870968 92.9032258 58.0645161 87.0967742 63.8709677 81.2903226 58.0645161 81.2903226 48.3870968"></polyline>
							                                        <path d="M100.645161,79.3548387 C100.645161,80.4251613 99.78,81.2903226 98.7096774,81.2903226 L36.7741935,81.2903226 C35.703871,81.2903226 34.8387097,80.4251613 34.8387097,79.3548387 L34.8387097,44.516129 C34.8387097,43.4458065 35.703871,42.5806452 36.7741935,42.5806452 L98.7096774,42.5806452 C99.78,42.5806452 100.645161,43.4458065 100.645161,44.516129 L100.645161,79.3548387 Z" id="Stroke-21" stroke="#151922"></path>
							                                        <path d="M29.0322581,50.3225806 L5.80645161,50.3225806 L5.80645161,19.3548387 C5.80645161,17.216129 4.07225806,15.483871 1.93548387,15.483871 L0,15.483871 L0,0 L13.5483871,0 C13.5483871,4.27548387 17.0148387,7.74193548 21.2903226,7.74193548 C25.5658065,7.74193548 29.0322581,4.27548387 29.0322581,0 L42.5806452,0 L42.5806452,15.483871 L40.6451613,15.483871 C38.5064516,15.483871 36.7741935,17.216129 36.7741935,19.3548387 L36.7741935,36.7741935" id="Stroke-23" stroke="#464FFF"></path>
							                                        <path d="M52.2580645,0 L71.6129032,0" id="Stroke-25" stroke="#151922"></path>
							                                        <path d="M63.8709677,7.74193548 L83.2258065,7.74193548" id="Stroke-27" stroke="#151922"></path>
							                                        <path d="M52.2580645,27.0967742 L67.7419355,27.0967742" id="Stroke-29" stroke="#151922"></path>
							                                        <path d="M71.6129032,27.0967742 L83.2258065,27.0967742" id="Stroke-31" stroke="#151922"></path>
							                                        <path d="M52.2580645,19.3548387 L56.1290323,19.3548387" id="Stroke-33" stroke="#151922"></path>
							                                        <path d="M60,19.3548387 L63.8709677,19.3548387" id="Stroke-35" stroke="#151922"></path>
							                                        <path d="M67.7419355,19.3548387 L71.6129032,19.3548387" id="Stroke-37" stroke="#151922"></path>
							                                        <path d="M29.0322581,42.5806452 L5.80645161,42.5806452" id="Stroke-39" stroke="#464FFF"></path>
							                                        <path d="M52.2580645,7.74193548 L60,7.74193548" id="Stroke-41" stroke="#151922"></path>
							                                        <path d="M83.2258065,0 L75.483871,0" id="Stroke-43" stroke="#151922"></path>
							                                        <path d="M27.0967742,25.1612903 C27.0967742,28.3683871 24.4954839,30.9677419 21.2903226,30.9677419 C18.0851613,30.9677419 15.483871,28.3683871 15.483871,25.1612903 C15.483871,21.9541935 18.0851613,19.3548387 21.2903226,19.3548387 C24.4954839,19.3548387 27.0967742,21.9541935 27.0967742,25.1612903 Z" id="Stroke-45" stroke="#464FFF"></path>
							                                    </g>
							                                </g>
							                            </g>
							                        </g>
							                    </g>
							                </g>
							            </g>
							        </g>
							    </g>
							</svg>