<svg width="122px" height="116px" viewBox="0 0 122 116" version="1.1" xmlns="http://www.w3.org/2000/svg" xmlns:xlink="http://www.w3.org/1999/xlink">
							    <g id="Light" stroke="none" stroke-width="1" fill="none" fill-rule="evenodd">
							        <g id="Light-ICO" transform="translate(-749.000000, -2685.000000)">
							            <g id="Features" transform="translate(0.000000, 2189.000000)">
							                <g id="Group-37" transform="translate(375.000000, 58.000000)">
							                    <g id="Group-36" transform="translate(0.000000, 83.000000)">
							                        <g id="6" transform="translate(300.000000, 312.000000)">
							                            <g id="Group-30" transform="translate(30.000000, 44.000000)">
							                                <g id="Icon" transform="translate(45.000000, 0.000000)">
							                                    <path d="M34.8387097,114.193548 L34.8387097,100.645161 C34.8387097,81.2903226 48.3870968,83.2258065 61.9354839,75.483871" id="Stroke-1" stroke="#F07F51"></path>
							                                    <path d="M92.9032258,75.483871 C106.451613,83.2258065 120,81.2903226 120,100.645161 L120,114.193548" id="Stroke-3" stroke="#F07F51"></path>
							                                    <polygon id="Stroke-5" stroke="#F07F51" points="85.1612903 83.2258065 77.4193548 79.3548387 69.6774194 83.2258065 61.9354839 75.483871 65.8064516 69.6774194 77.4193548 71.6129032 89.0322581 69.6774194 92.9032258 75.483871"></polygon>
							                                    <path d="M87.0967742,61.9354839 L87.0967742,69.6774194" id="Stroke-7" stroke="#F07F51"></path>
							                                    <path d="M67.7419355,69.6774194 L67.7419355,61.9354839" id="Stroke-9" stroke="#F07F51"></path>
							                                    <path d="M75.483871,96.7741935 L79.3548387,96.7741935" id="Stroke-11" stroke="#F07F51"></path>
							                                    <path d="M75.483871,89.0322581 L79.3548387,89.0322581" id="Stroke-13" stroke="#F07F51"></path>
							                                    <path d="M94.8387097,36.7741935 C94.8387097,25.016129 89.1774194,19.3548387 77.4193548,19.3548387 C65.6612903,19.3548387 60,25.016129 60,36.7741935 L60,44.516129 C61.9354839,58.0645161 67.7419355,61.9354839 67.7419355,61.9354839 C71.6129032,63.8709677 77.4193548,63.8709677 77.4193548,63.8709677 C77.4193548,63.8709677 83.2258065,63.8709677 87.0967742,61.9354839 C87.0967742,61.9354839 92.9032258,58.0645161 94.8387097,44.516129 L94.8387097,36.7741935 Z" id="Stroke-15" stroke="#F07F51"></path>
							                                    <polyline id="Stroke-17" stroke="#F07F51" points="60 36.7741935 67.7419355 32.9032258 77.4193548 36.7741935 87.0967742 40.6451613 94.8387097 36.7741935"></polyline>
							                                    <path d="M50.3225806,114.193548 L50.3225806,102.580645" id="Stroke-19" stroke="#F07F51"></path>
							                                    <path d="M104.516129,114.193548 L104.516129,102.580645" id="Stroke-21" stroke="#F07F51"></path>
							                                    <path d="M30.9696774,81.3073548 C19.6722581,74.5099355 0,57.7196129 0,23.2254194 L0,11.6125161 L11.6129032,11.6125161 L38.7096774,-0.000387096774 L65.8064516,11.6125161" id="Stroke-23" stroke="#464FFF" stroke-linejoin="round"></path>
							                                    <path d="M55.2671613,57.8264516 C47.6549032,67.14 38.7090968,71.6129032 38.7090968,71.6129032 C38.7090968,71.6129032 11.6123226,58.0645161 11.6123226,27.0967742 L11.6123226,23.2258065 L17.4187742,23.2258065 L38.7090968,13.5483871 L56.1245806,21.4664516" id="Stroke-25" stroke="#3FD3B8"></path>
							                                    <path d="M38.7096774,25.1612903 L38.7096774,29.0322581" id="Stroke-27" stroke="#464FFF" stroke-linejoin="round"></path>
							                                    <path d="M38.7096774,32.9032258 L38.7096774,36.7741935" id="Stroke-29" stroke="#464FFF" stroke-linejoin="round"></path>
							                                    <path d="M38.7096774,40.6451613 L38.7096774,44.516129" id="Stroke-31" stroke="#464FFF" stroke-linejoin="round"></path>
							                                </g>
							                            </g>
							                        </g>
							                    </g>
							                </g>
							            </g>
							        </g>
							    </g>
							</svg>