<svg width="120px" height="120px" viewBox="0 0 120 120" version="1.1" xmlns="http://www.w3.org/2000/svg" xmlns:xlink="http://www.w3.org/1999/xlink">
							    <g id="Light" stroke="none" stroke-width="1" fill="none" fill-rule="evenodd">
							        <g id="Light-ICO" transform="translate(-450.000000, -2683.000000)">
							            <g id="Features" transform="translate(0.000000, 2189.000000)">
							                <g id="Group-37" transform="translate(375.000000, 58.000000)">
							                    <g id="Group-36" transform="translate(0.000000, 83.000000)">
							                        <g id="5" transform="translate(0.000000, 312.000000)">
							                            <g id="Group-31" transform="translate(30.000000, 41.000000)">
							                                <g id="Icon" transform="translate(45.000000, 0.000000)">
							                                    <polygon id="Stroke-1" stroke="#3FD3B8" points="82.5 78.75 78.75 82.5 37.5 82.5 37.5 37.5 82.5 37.5"></polygon>
							                                    <path d="M43.125,45 L46.875,45" id="Stroke-2" stroke="#F07F51"></path>
							                                    <path d="M45,37.5 L45,31.875" id="Stroke-3" stroke="#F07F51"></path>
							                                    <path d="M52.5,37.5 L52.5,31.875" id="Stroke-4" stroke="#F07F51"></path>
							                                    <path d="M60,37.5 L60,31.875" id="Stroke-5" stroke="#F07F51"></path>
							                                    <path d="M67.5,37.5 L67.5,31.875" id="Stroke-6" stroke="#F07F51"></path>
							                                    <path d="M75,37.5 L75,31.875" id="Stroke-7" stroke="#F07F51"></path>
							                                    <path d="M45,88.125 L45,82.5" id="Stroke-8" stroke="#F07F51"></path>
							                                    <path d="M52.5,88.125 L52.5,82.5" id="Stroke-9" stroke="#F07F51"></path>
							                                    <path d="M60,88.125 L60,82.5" id="Stroke-10" stroke="#F07F51"></path>
							                                    <path d="M67.5,88.125 L67.5,82.5" id="Stroke-11" stroke="#F07F51"></path>
							                                    <path d="M75,88.125 L75,82.5" id="Stroke-12" stroke="#F07F51"></path>
							                                    <path d="M82.5,45 L88.125,45" id="Stroke-13" stroke="#F07F51"></path>
							                                    <path d="M82.5,52.5 L88.125,52.5" id="Stroke-14" stroke="#F07F51"></path>
							                                    <path d="M82.5,60 L88.125,60" id="Stroke-15" stroke="#F07F51"></path>
							                                    <path d="M82.5,67.5 L88.125,67.5" id="Stroke-16" stroke="#F07F51"></path>
							                                    <path d="M82.5,75 L88.125,75" id="Stroke-17" stroke="#F07F51"></path>
							                                    <path d="M31.875,45 L37.5,45" id="Stroke-18" stroke="#F07F51"></path>
							                                    <path d="M31.875,52.5 L37.5,52.5" id="Stroke-19" stroke="#F07F51"></path>
							                                    <path d="M31.875,60 L37.5,60" id="Stroke-20" stroke="#F07F51"></path>
							                                    <path d="M31.875,67.5 L37.5,67.5" id="Stroke-21" stroke="#F07F51"></path>
							                                    <path d="M31.875,75 L37.5,75" id="Stroke-22" stroke="#F07F51"></path>
							                                    <polyline id="Stroke-23" stroke="#F07F51" points="45 91.875 45 106.875 37.5 114.375 37.5 120"></polyline>
							                                    <path d="M52.5,91.875 L52.5,105" id="Stroke-25" stroke="#F07F51"></path>
							                                    <polyline id="Stroke-26" stroke="#F07F51" points="60 91.875 60 110.625 52.5 110.625 52.5 120"></polyline>
							                                    <polyline id="Stroke-28" stroke="#F07F51" points="67.5 91.875 67.5 106.875 95.625 106.875"></polyline>
							                                    <path d="M75,99.375 L75,120" id="Stroke-29" stroke="#F07F51"></path>
							                                    <path d="M60,7.5 L60,28.125" id="Stroke-31" stroke="#F07F51"></path>
							                                    <polyline id="Stroke-32" stroke="#F07F51" points="78.75 0 78.75 15 75 18.75 75 28.125"></polyline>
							                                    <polyline id="Stroke-34" stroke="#F07F51" points="35.625 9.375 52.5 9.375 52.5 28.125"></polyline>
							                                    <path d="M45,24.375 L45,28.125" id="Stroke-35" stroke="#F07F51"></path>
							                                    <g id="Group-40" transform="translate(91.875000, 67.500000)" stroke="#F07F51">
							                                        <polyline id="Stroke-36" points="0 7.5 13.125 7.5 16.875 11.25 28.125 11.25"></polyline>
							                                        <polyline id="Stroke-38" points="7.5 0 16.875 0 20.625 3.75 28.125 3.75"></polyline>
							                                    </g>
							                                    <path d="M91.875,60 L112.5,60" id="Stroke-41" stroke="#F07F51"></path>
							                                    <g id="Group-46" transform="translate(0.000000, 41.250000)" stroke="#F07F51">
							                                        <polyline id="Stroke-42" points="91.875 3.75 108.75 3.75 112.5 0 120 0"></polyline>
							                                        <polyline id="Stroke-44" points="0 37.5 13.125 37.5 16.875 33.75 28.125 33.75"></polyline>
							                                    </g>
							                                    <polyline id="Stroke-47" stroke="#F07F51" points="11.25 24.375 11.25 60 28.125 60"></polyline>
							                                    <path d="M91.875,67.5 L95.625,67.5" id="Stroke-55" stroke="#F07F51"></path>
							                                    <path d="M120,52.5 L106.875,52.5" id="Stroke-56" stroke="#F07F51"></path>
							                                    <path d="M93.75,18.75 L93.75,15" id="Stroke-58" stroke="#F07F51"></path>
							                                    <path d="M69.375,118.125 L65.625,118.125" id="Stroke-59" stroke="#F07F51"></path>
							                                    <path d="M103.125,106.875 L99.375,106.875" id="Stroke-61" stroke="#F07F51"></path>
							                                    <path d="M75,91.875 L75,95.625" id="Stroke-67" stroke="#F07F51"></path>
							                                    <path d="M31.875,90 L28.125,90" id="Stroke-68" stroke="#F07F51"></path>
							                                    <path d="M24.375,90 L20.625,90" id="Stroke-69" stroke="#F07F51"></path>
							                                    <path d="M16.875,90 L13.125,90" id="Stroke-70" stroke="#F07F51"></path>
							                                    <path d="M24.375,97.5 L20.625,97.5" id="Stroke-71" stroke="#F07F51"></path>
							                                    <path d="M31.875,105 L28.125,105" id="Stroke-72" stroke="#F07F51"></path>
							                                    <path d="M31.875,97.5 L28.125,97.5" id="Stroke-73" stroke="#F07F51"></path>
							                                    <path d="M28.125,67.5 L24.375,67.5" id="Stroke-74" stroke="#F07F51"></path>
							                                    <path d="M20.625,67.5 L16.875,67.5" id="Stroke-75" stroke="#F07F51"></path>
							                                    <path d="M13.125,67.5 L9.375,67.5" id="Stroke-76" stroke="#F07F51"></path>
							                                    <path d="M11.25,20.625 L11.25,16.875" id="Stroke-77" stroke="#F07F51"></path>
							                                    <polyline id="Stroke-78" stroke="#F07F51" points="91.875 52.5 101.25 52.5 101.25 9.375 67.5 9.375 67.5 28.125"></polyline>
							                                    <path d="M28.125,37.5 L24.375,37.5" id="Stroke-79" stroke="#F07F51"></path>
							                                    <path d="M28.125,30 L24.375,30" id="Stroke-80" stroke="#F07F51"></path>
							                                    <polygon id="Stroke-90" stroke="#F07F51" points="86.25 93.75 93.75 93.75 93.75 86.25 86.25 86.25"></polygon>
							                                    <path d="M63.75,60 L56.25,60" id="Stroke-94" stroke="#F07F51"></path>
							                                    <path d="M60,0 L60,3.75" id="Stroke-81" stroke="#F07F51"></path>
							                                    <path d="M45,0 L45,3.75" id="Stroke-83" stroke="#F07F51"></path>
							                                    <path d="M37.5,0 L37.5,3.75" id="Stroke-85" stroke="#F07F51"></path>
							                                    <path d="M67.5,0 L67.5,3.75" id="Stroke-87" stroke="#F07F51"></path>
							                                </g>
							                            </g>
							                        </g>
							                    </g>
							                </g>
							            </g>
							        </g>
							    </g>
							</svg>