<svg width="122px" height="122px" viewBox="0 0 122 122" version="1.1" xmlns="http://www.w3.org/2000/svg" xmlns:xlink="http://www.w3.org/1999/xlink">
							    <g id="Light" stroke="none" stroke-width="1" fill="none" fill-rule="evenodd">
							        <g id="Light-ICO" transform="translate(-1349.000000, -2682.000000)">
							            <g id="Features" transform="translate(0.000000, 2189.000000)">
							                <g id="Group-37" transform="translate(375.000000, 58.000000)">
							                    <g id="Group-36" transform="translate(0.000000, 83.000000)">
							                        <g id="8" transform="translate(900.000000, 312.000000)">
							                            <g id="Group-27" transform="translate(30.000000, 41.000000)">
							                                <g id="Icon" transform="translate(45.000000, 0.000000)">
							                                    <path d="M83.2258065,110.322581 L65.8064516,114.193548" id="Stroke-1" stroke="#F07F51"></path>
							                                    <path d="M114.193548,65.8064516 L110.322581,81.2903226" id="Stroke-2" stroke="#F07F51"></path>
							                                    <path d="M60,92.9032258 L60,108.387097" id="Stroke-3" stroke="#F07F51"></path>
							                                    <g id="Group-96">
							                                        <path d="M65.8064516,60 C65.8064516,63.2051613 63.2051613,65.8064516 60,65.8064516 C56.7948387,65.8064516 54.1935484,63.2051613 54.1935484,60 C54.1935484,56.7948387 56.7948387,54.1935484 60,54.1935484 C63.2051613,54.1935484 65.8064516,56.7948387 65.8064516,60 Z" id="Stroke-4" stroke="#464FFF"></path>
							                                        <path d="M65.8064516,32.9032258 C65.8064516,36.1083871 63.2051613,38.7096774 60,38.7096774 C56.7948387,38.7096774 54.1935484,36.1083871 54.1935484,32.9032258 C54.1935484,29.6980645 56.7948387,27.0967742 60,27.0967742 C63.2051613,27.0967742 65.8064516,29.6980645 65.8064516,32.9032258 Z" id="Stroke-6" stroke="#464FFF"></path>
							                                        <path d="M65.8064516,5.80645161 C65.8064516,9.0116129 63.2051613,11.6129032 60,11.6129032 C56.7948387,11.6129032 54.1935484,9.0116129 54.1935484,5.80645161 C54.1935484,2.60129032 56.7948387,0 60,0 C63.2051613,0 65.8064516,2.60129032 65.8064516,5.80645161 Z" id="Stroke-8" stroke="#464FFF"></path>
							                                        <path d="M65.8064516,87.0967742 C65.8064516,90.3019355 63.2051613,92.9032258 60,92.9032258 C56.7948387,92.9032258 54.1935484,90.3019355 54.1935484,87.0967742 C54.1935484,83.8916129 56.7948387,81.2903226 60,81.2903226 C63.2051613,81.2903226 65.8064516,83.8916129 65.8064516,87.0967742 Z" id="Stroke-10" stroke="#464FFF"></path>
							                                        <path d="M65.8064516,114.193548 C65.8064516,117.39871 63.2051613,120 60,120 C56.7948387,120 54.1935484,117.39871 54.1935484,114.193548 C54.1935484,110.988387 56.7948387,108.387097 60,108.387097 C63.2051613,108.387097 65.8064516,110.988387 65.8064516,114.193548 Z" id="Stroke-12" stroke="#464FFF"></path>
							                                        <path d="M40.6451613,44.516129 C40.6451613,47.7212903 38.043871,50.3225806 34.8387097,50.3225806 C31.6335484,50.3225806 29.0322581,47.7212903 29.0322581,44.516129 C29.0322581,41.3109677 31.6335484,38.7096774 34.8387097,38.7096774 C38.043871,38.7096774 40.6451613,41.3109677 40.6451613,44.516129 Z" id="Stroke-14" stroke="#464FFF"></path>
							                                        <path d="M90.9677419,44.516129 C90.9677419,47.7212903 88.3664516,50.3225806 85.1612903,50.3225806 C81.956129,50.3225806 79.3548387,47.7212903 79.3548387,44.516129 C79.3548387,41.3109677 81.956129,38.7096774 85.1612903,38.7096774 C88.3664516,38.7096774 90.9677419,41.3109677 90.9677419,44.516129 Z" id="Stroke-16" stroke="#464FFF"></path>
							                                        <path d="M114.193548,87.0967742 C114.193548,83.8916129 111.592258,81.2903226 108.387097,81.2903226 C105.181935,81.2903226 102.580645,83.8916129 102.580645,87.0967742 C102.580645,90.3019355 105.181935,92.9032258 108.387097,92.9032258 C111.592258,92.9032258 114.193548,90.3019355 114.193548,87.0967742 Z" id="Stroke-18" stroke="#464FFF"></path>
							                                        <path d="M94.8387097,108.387097 C94.8387097,105.181935 92.2374194,102.580645 89.0322581,102.580645 C85.8270968,102.580645 83.2258065,105.181935 83.2258065,108.387097 C83.2258065,111.592258 85.8270968,114.193548 89.0322581,114.193548 C92.2374194,114.193548 94.8387097,111.592258 94.8387097,108.387097 Z" id="Stroke-20" stroke="#464FFF"></path>
							                                        <path d="M40.6451613,75.483871 C40.6451613,78.6890323 38.043871,81.2903226 34.8387097,81.2903226 C31.6335484,81.2903226 29.0322581,78.6890323 29.0322581,75.483871 C29.0322581,72.2787097 31.6335484,69.6774194 34.8387097,69.6774194 C38.043871,69.6774194 40.6451613,72.2787097 40.6451613,75.483871 Z" id="Stroke-22" stroke="#464FFF"></path>
							                                        <path d="M90.9677419,75.483871 C90.9677419,78.6890323 88.3664516,81.2903226 85.1612903,81.2903226 C81.956129,81.2903226 79.3548387,78.6890323 79.3548387,75.483871 C79.3548387,72.2787097 81.956129,69.6774194 85.1612903,69.6774194 C88.3664516,69.6774194 90.9677419,72.2787097 90.9677419,75.483871 Z" id="Stroke-24" stroke="#464FFF"></path>
							                                        <path d="M38.7096774,27.0967742 L42.5806452,27.0967742" id="Stroke-26" stroke="#151922"></path>
							                                        <path d="M38.7096774,92.9032258 L42.5806452,92.9032258" id="Stroke-28" stroke="#151922"></path>
							                                        <path d="M77.4193548,92.9032258 L81.2903226,92.9032258" id="Stroke-30" stroke="#151922"></path>
							                                        <path d="M21.2903226,60 L25.1612903,60" id="Stroke-32" stroke="#151922"></path>
							                                        <path d="M77.4193548,27.0967742 L81.2903226,27.0967742" id="Stroke-34" stroke="#151922"></path>
							                                        <path d="M94.8387097,60 L98.7096774,60" id="Stroke-36" stroke="#151922"></path>
							                                        <path d="M92.9032258,104.516129 L104.516129,90.9677419" id="Stroke-38" stroke="#F07F51"></path>
							                                        <path d="M83.2258065,9.67741935 L65.8064516,5.80645161" id="Stroke-40" stroke="#F07F51"></path>
							                                        <path d="M114.193548,54.1935484 L110.322581,38.7096774" id="Stroke-42" stroke="#F07F51"></path>
							                                        <path d="M114.193548,32.9032258 C114.193548,36.1083871 111.592258,38.7096774 108.387097,38.7096774 C105.181935,38.7096774 102.580645,36.1083871 102.580645,32.9032258 C102.580645,29.6980645 105.181935,27.0967742 108.387097,27.0967742 C111.592258,27.0967742 114.193548,29.6980645 114.193548,32.9032258 Z" id="Stroke-44" stroke="#3FD3B8"></path>
							                                        <path d="M94.8387097,11.6129032 C94.8387097,14.8180645 92.2374194,17.4193548 89.0322581,17.4193548 C85.8270968,17.4193548 83.2258065,14.8180645 83.2258065,11.6129032 C83.2258065,8.40774194 85.8270968,5.80645161 89.0322581,5.80645161 C92.2374194,5.80645161 94.8387097,8.40774194 94.8387097,11.6129032 Z" id="Stroke-46" stroke="#3FD3B8"></path>
							                                        <path d="M120,60 C120,56.7948387 117.39871,54.1935484 114.193548,54.1935484 C110.988387,54.1935484 108.387097,56.7948387 108.387097,60 C108.387097,63.2051613 110.988387,65.8064516 114.193548,65.8064516 C117.39871,65.8064516 120,63.2051613 120,60 Z" id="Stroke-48" stroke="#3FD3B8"></path>
							                                        <path d="M92.9032258,15.483871 L104.516129,29.0322581" id="Stroke-50" stroke="#F07F51"></path>
							                                        <path d="M36.7741935,110.322581 L54.1935484,114.193548" id="Stroke-52" stroke="#F07F51"></path>
							                                        <path d="M5.80645161,65.8064516 L9.67741935,81.2903226" id="Stroke-54" stroke="#F07F51"></path>
							                                        <path d="M5.80645161,87.0967742 C5.80645161,83.8916129 8.40774194,81.2903226 11.6129032,81.2903226 C14.8180645,81.2903226 17.4193548,83.8916129 17.4193548,87.0967742 C17.4193548,90.3019355 14.8180645,92.9032258 11.6129032,92.9032258 C8.40774194,92.9032258 5.80645161,90.3019355 5.80645161,87.0967742 Z" id="Stroke-56" stroke="#00DFFF"></path>
							                                        <path d="M25.1612903,108.387097 C25.1612903,105.181935 27.7625806,102.580645 30.9677419,102.580645 C34.1729032,102.580645 36.7741935,105.181935 36.7741935,108.387097 C36.7741935,111.592258 34.1729032,114.193548 30.9677419,114.193548 C27.7625806,114.193548 25.1612903,111.592258 25.1612903,108.387097 Z" id="Stroke-58" stroke="#00DFFF"></path>
							                                        <path d="M27.0967742,104.516129 L15.483871,90.9677419" id="Stroke-60" stroke="#F07F51"></path>
							                                        <path d="M36.7741935,9.67741935 L54.1935484,5.80645161" id="Stroke-62" stroke="#F07F51"></path>
							                                        <path d="M5.80645161,54.1935484 L9.67741935,38.7096774" id="Stroke-64" stroke="#F07F51"></path>
							                                        <path d="M5.80645161,32.9032258 C5.80645161,36.1083871 8.40774194,38.7096774 11.6129032,38.7096774 C14.8180645,38.7096774 17.4193548,36.1083871 17.4193548,32.9032258 C17.4193548,29.6980645 14.8180645,27.0967742 11.6129032,27.0967742 C8.40774194,27.0967742 5.80645161,29.6980645 5.80645161,32.9032258 Z" id="Stroke-66" stroke="#00DFFF"></path>
							                                        <path d="M25.1612903,11.6129032 C25.1612903,14.8180645 27.7625806,17.4193548 30.9677419,17.4193548 C34.1729032,17.4193548 36.7741935,14.8180645 36.7741935,11.6129032 C36.7741935,8.40774194 34.1729032,5.80645161 30.9677419,5.80645161 C27.7625806,5.80645161 25.1612903,8.40774194 25.1612903,11.6129032 Z" id="Stroke-68" stroke="#00DFFF"></path>
							                                        <path d="M0,60 C0,56.7948387 2.60129032,54.1935484 5.80645161,54.1935484 C9.0116129,54.1935484 11.6129032,56.7948387 11.6129032,60 C11.6129032,63.2051613 9.0116129,65.8064516 5.80645161,65.8064516 C2.60129032,65.8064516 0,63.2051613 0,60 Z" id="Stroke-70" stroke="#00DFFF"></path>
							                                        <path d="M27.0967742,15.483871 L15.483871,29.0322581" id="Stroke-72" stroke="#F07F51"></path>
							                                        <path d="M54.1935484,87.0967742 L40.6451613,79.3548387" id="Stroke-74" stroke="#F07F51"></path>
							                                        <path d="M34.8387097,69.6774194 L34.8387097,50.3225806" id="Stroke-76" stroke="#F07F51"></path>
							                                        <path d="M40.6451613,48.3870968 L54.1935484,58.0645161" id="Stroke-78" stroke="#F07F51"></path>
							                                        <path d="M65.8064516,58.0645161 L79.3548387,48.3870968" id="Stroke-80" stroke="#F07F51"></path>
							                                        <path d="M60,27.0967742 L60,11.6129032" id="Stroke-82" stroke="#F07F51"></path>
							                                        <path d="M65.8064516,34.8387097 L79.3548387,40.6451613" id="Stroke-84" stroke="#F07F51"></path>
							                                        <path d="M65.8064516,87.0967742 L79.3548387,79.3548387" id="Stroke-86" stroke="#F07F51"></path>
							                                        <path d="M90.9677419,79.3548387 L102.580645,85.1612903" id="Stroke-88" stroke="#F07F51"></path>
							                                        <path d="M29.0322581,79.3548387 L17.4193548,85.1612903" id="Stroke-90" stroke="#F07F51"></path>
							                                        <path d="M85.1612903,50.3225806 L85.1612903,69.6725806" id="Stroke-92" stroke="#F07F51"></path>
							                                        <path d="M29.0322581,42.5806452 L17.4193548,36.7741935" id="Stroke-94" stroke="#F07F51"></path>
							                                    </g>
							                                </g>
							                            </g>
							                        </g>
							                    </g>
							                </g>
							            </g>
							        </g>
							    </g>
							</svg>