<svg width="122px" height="122px" viewBox="0 0 122 122" version="1.1" xmlns="http://www.w3.org/2000/svg" xmlns:xlink="http://www.w3.org/1999/xlink">
							    <g id="Light" stroke="none" stroke-width="1" fill="none" fill-rule="evenodd">
							        <g id="Light-ICO" transform="translate(-1349.000000, -2383.000000)">
							            <g id="Features" transform="translate(0.000000, 2189.000000)">
							                <g id="Group-37" transform="translate(375.000000, 58.000000)">
							                    <g id="Group-36" transform="translate(0.000000, 83.000000)">
							                        <g id="4" transform="translate(900.000000, 0.000000)">
							                            <g id="Group-32" transform="translate(30.000000, 54.000000)">
							                                <g id="icon" transform="translate(45.000000, 0.000000)">
							                                    <path d="M40.6451613,81.2903226 C18.1974194,81.2903226 0,63.0929032 0,40.6451613 C0,18.1974194 18.1974194,0 40.6451613,0 C63.0929032,0 81.2903226,18.1974194 81.2903226,40.6451613" id="Stroke-1" stroke="#F07F51"></path>
							                                    <path d="M87.0967742,71.6129032 C87.0967742,67.3374194 83.6303226,63.8709677 79.3548387,63.8709677 C75.0793548,63.8709677 71.6129032,67.3374194 71.6129032,71.6129032 C71.6129032,75.8883871 79.3548387,79.3548387 79.3548387,79.3548387 C79.3548387,79.3548387 87.0967742,82.8212903 87.0967742,87.0967742 C87.0967742,91.3722581 83.6303226,94.8387097 79.3548387,94.8387097 C75.0793548,94.8387097 71.6129032,91.3722581 71.6129032,87.0967742" id="Stroke-3" stroke="#464FFF"></path>
							                                    <path d="M79.3548387,63.8709677 L79.3548387,58.0645161" id="Stroke-5" stroke="#464FFF"></path>
							                                    <path d="M79.3548387,94.8387097 L79.3548387,100.645161" id="Stroke-7" stroke="#464FFF"></path>
							                                    <path d="M120,79.3548387 C120,101.802581 101.802581,120 79.3548387,120 C56.9070968,120 38.7096774,101.802581 38.7096774,79.3548387 C38.7096774,56.9070968 56.9070968,38.7096774 79.3548387,38.7096774 C101.802581,38.7096774 120,56.9070968 120,79.3548387 Z" id="Stroke-9" stroke="#F07F51"></path>
							                                    <path d="M60,79.3548387 L56.1290323,79.3548387" id="Stroke-11" stroke="#F07F51"></path>
							                                    <path d="M102.580645,79.3548387 L98.7096774,79.3548387" id="Stroke-13" stroke="#F07F51"></path>
							                                    <path d="M83.2258065,11.6129032 L100.645161,11.6129032 C104.920645,11.6129032 108.387097,15.0793548 108.387097,19.3548387 L108.387097,36.7741935" id="Stroke-17" stroke="#F07F51"></path>
							                                    <path d="M36.7741935,108.387097 L19.3548387,108.387097 C15.0793548,108.387097 11.6129032,104.920645 11.6129032,100.645161 L11.6129032,83.2258065" id="Stroke-19" stroke="#F07F51"></path>
							                                    <path d="M44.516129,58.0645161 L40.6451613,58.0645161 C31.023871,58.0645161 23.2258065,50.2664516 23.2258065,40.6451613 C23.2258065,31.023871 31.023871,23.2258065 40.6451613,23.2258065 C47.4832258,23.2258065 53.403871,27.1683871 56.2529032,32.9032258" id="Stroke-23" stroke="#3FD3B8"></path>
							                                    <path d="M17.4193548,36.7741935 L40.6451613,36.7741935" id="Stroke-25" stroke="#3FD3B8"></path>
							                                    <path d="M17.4193548,44.516129 L40.6451613,44.516129" id="Stroke-27" stroke="#3FD3B8"></path>
							                                </g>
							                            </g>
							                        </g>
							                    </g>
							                </g>
							            </g>
							        </g>
							    </g>
							</svg>