<svg width="120px" height="118px" viewBox="0 0 120 118" version="1.1" xmlns="http://www.w3.org/2000/svg" xmlns:xlink="http://www.w3.org/1999/xlink">
							    <g id="Light" stroke="none" stroke-width="1" fill="none" fill-rule="evenodd">
							        <g id="Light-ICO" transform="translate(-750.000000, -2359.000000)">
							            <g id="Features" transform="translate(0.000000, 2189.000000)">
							                <g id="Group-37" transform="translate(375.000000, 58.000000)">
							                    <g id="Group-36" transform="translate(0.000000, 83.000000)">
							                        <g id="2" transform="translate(300.000000, 0.000000)">
							                            <g id="Icon" transform="translate(75.000000, 30.000000)">
							                                <g id="Group-66" stroke="#F07F51">
							                                    <path d="M60,0 L60,35.625" id="Stroke-2"></path>
							                                    <path d="M60,116.25 L60,88.125" id="Stroke-4"></path>
							                                    <path d="M3.75,45 L35.625,45" id="Stroke-6"></path>
							                                    <path d="M84.375,71.25 L118.125,71.25" id="Stroke-8"></path>
							                                    <path d="M118.125,56.25 L84.375,56.25" id="Stroke-14"></path>
							                                    <path d="M88.125,18.75 L7.5,18.75" id="Stroke-16"></path>
							                                    <path d="M112.5,97.5 L45,97.5" id="Stroke-18"></path>
							                                    <path d="M90,61.875 L90,65.625" id="Stroke-20"></path>
							                                    <path d="M97.5,61.875 L97.5,65.625" id="Stroke-22"></path>
							                                    <path d="M105,61.875 L105,65.625" id="Stroke-24"></path>
							                                    <path d="M60,116.25 C49.644375,116.25 41.25,91.875 41.25,71.25 L11.25,71.25" id="Stroke-28"></path>
							                                    <path d="M120,97.5 L116.25,97.5" id="Stroke-30"></path>
							                                    <path d="M3.75,18.75 L0,18.75" id="Stroke-32"></path>
							                                    <path d="M65.625,33.75 L69.375,33.75" id="Stroke-34"></path>
							                                    <path d="M73.125,33.75 L76.875,33.75" id="Stroke-36"></path>
							                                    <path d="M80.625,41.25 L84.375,41.25" id="Stroke-38"></path>
							                                    <path d="M2.3544375,50.6251875 C6.0331875,22.0670625 30.4400625,0.0001875 59.9994375,0.0001875 C92.1013125,0.0001875 118.124437,26.0233125 118.124437,58.1251875" id="Stroke-40"></path>
							                                    <path d="M118.005937,61.8751875 C116.072812,92.2295625 90.8409375,116.250188 59.9990625,116.250188 C27.8990625,116.250188 1.8740625,90.2270625 1.8740625,58.1251875 L22.4990625,58.1251875" id="Stroke-42"></path>
							                                    <path d="M15,78.75 L18.75,78.75" id="Stroke-44"></path>
							                                    <path d="M28.125,90 L54.375,90" id="Stroke-46"></path>
							                                    <path d="M80.625,33.75 L112.5,33.75" id="Stroke-48"></path>
							                                    <path d="M7.5,33.75 L43.125,33.75" id="Stroke-50"></path>
							                                    <path d="M92.1255,88.1255625 C85.55925,104.979937 73.628625,116.250562 59.99925,116.250562 C39.289875,116.250562 22.49925,90.2274375 22.49925,58.1255625 C22.49925,26.0236875 39.289875,0.0005625 59.99925,0.0005625 C80.7105,0.0005625 97.49925,26.2505625 97.49925,56.2505625" id="Stroke-52"></path>
							                                    <path d="M112.5,82.5 L65.625,82.5" id="Stroke-54"></path>
							                                    <path d="M65.625,90 L69.375,90" id="Stroke-56"></path>
							                                    <path d="M73.125,90 L76.875,90" id="Stroke-58"></path>
							                                    <path d="M39.375,45 L43.125,45" id="Stroke-60"></path>
							                                    <path d="M39.375,52.5 L43.125,52.5" id="Stroke-62"></path>
							                                    <path d="M39.375,60 L43.125,60" id="Stroke-64"></path>
							                                </g>
							                                <g id="Group-7" transform="translate(54.375000, 45.000000)" stroke="#464FFF" stroke-width="2">
							                                    <polyline id="Stroke-41" points="0 20.625 9.375 20.625 9.375 15 1.875 11.25 1.875 5.625 11.25 5.625"></polyline>
							                                    <path d="M5.625,20.625 L5.625,26.25" id="Stroke-43"></path>
							                                    <path d="M5.625,0 L5.625,5.625" id="Stroke-45"></path>
							                                </g>
							                            </g>
							                        </g>
							                    </g>
							                </g>
							            </g>
							        </g>
							    </g>
							</svg>