<svg width="122px" height="122px" viewBox="0 0 122 122" version="1.1" xmlns="http://www.w3.org/2000/svg" xmlns:xlink="http://www.w3.org/1999/xlink">
							    <g id="Light" stroke="none" stroke-width="1" fill="none" fill-rule="evenodd">
							        <g id="Light-ICO" transform="translate(-1049.000000, -2671.000000)">
							            <g id="Features" transform="translate(0.000000, 2189.000000)">
							                <g id="Group-37" transform="translate(375.000000, 58.000000)">
							                    <g id="Group-36" transform="translate(0.000000, 83.000000)">
							                        <g id="7" transform="translate(600.000000, 312.000000)">
							                            <g id="Icon" transform="translate(75.000000, 30.000000)">
							                                <path d="M60,29.0322581 L60,1.93548387 C60,0.86516129 60.8651613,0 61.9354839,0 L118.064516,0 C119.134839,0 120,0.86516129 120,1.93548387 L120,110.322581 C120,111.392903 119.134839,112.258065 118.064516,112.258065 L65.8064516,112.258065" id="Stroke-1" stroke="#F07F51"></path>
							                                <path d="M114.193548,15.483871 L60,15.483871" id="Stroke-3" stroke="#F07F51"></path>
							                                <path d="M92.9032258,7.74193548 L89.0322581,7.74193548" id="Stroke-5" stroke="#F07F51"></path>
							                                <path d="M100.645161,7.74193548 L96.7741935,7.74193548" id="Stroke-7" stroke="#F07F51"></path>
							                                <path d="M85.1612903,7.74193548 L81.2903226,7.74193548" id="Stroke-9" stroke="#F07F51"></path>
							                                <path d="M120,96.7741935 L65.8064516,96.7741935" id="Stroke-11" stroke="#F07F51"></path>
							                                <path d="M96.7741935,104.516129 L85.1612903,104.516129" id="Stroke-13" stroke="#F07F51"></path>
							                                <path d="M54.1935484,7.74193548 L1.93548387,7.74193548 C0.86516129,7.74193548 0,8.60709677 0,9.67741935 L0,118.064516 C0,119.134839 0.86516129,120 1.93548387,120 L58.0645161,120 C59.1348387,120 60,119.134839 60,118.064516 L60,90.9677419" id="Stroke-15" stroke="#F07F51"></path>
							                                <path d="M54.1935484,104.516129 L0,104.516129" id="Stroke-17" stroke="#F07F51"></path>
							                                <path d="M30.9677419,112.258065 L27.0967742,112.258065" id="Stroke-19" stroke="#F07F51"></path>
							                                <path d="M38.7096774,112.258065 L34.8387097,112.258065" id="Stroke-21" stroke="#F07F51"></path>
							                                <path d="M23.2258065,112.258065 L19.3548387,112.258065" id="Stroke-23" stroke="#F07F51"></path>
							                                <path d="M54.1935484,23.2258065 L5.80645161,23.2258065" id="Stroke-25" stroke="#F07F51"></path>
							                                <path d="M34.8387097,15.483871 L23.2258065,15.483871" id="Stroke-27" stroke="#F07F51"></path>
							                                <path d="M44.516129,60 L48.3870968,60" id="Stroke-29" stroke="#F07F51"></path>
							                                <path d="M71.6129032,60 L75.483871,60" id="Stroke-31" stroke="#F07F51"></path>
							                                <path d="M112.258065,34.8387097 L60,34.8387097 C46.1032258,34.8387097 34.8387097,46.1032258 34.8387097,60 C34.8387097,66.6696774 37.4341935,72.7335484 41.6690323,77.2354839" id="Stroke-33" stroke="#50E3C2"></path>
							                                <polyline id="Stroke-35" stroke="#50E3C2" points="104.516129 42.5806452 112.258065 34.8387097 104.516129 27.0967742"></polyline>
							                                <path d="M7.74193548,85.1612903 L60,85.1612903 C73.8967742,85.1612903 85.1612903,73.8967742 85.1612903,60 C85.1612903,53.0516129 82.3451613,46.7612903 77.7909677,42.2090323" id="Stroke-37" stroke="#50E3C2"></path>
							                                <polyline id="Stroke-39" stroke="#50E3C2" points="15.483871 92.9032258 7.74193548 85.1612903 15.483871 77.4193548"></polyline>
							                                <polyline id="Stroke-41" stroke="#464FFF" points="54.1935484 67.7419355 63.8709677 67.7419355 63.8709677 61.9354839 56.1290323 58.0645161 56.1290323 52.2580645 65.8064516 52.2580645"></polyline>
							                                <path d="M60,67.7419355 L60,73.5483871" id="Stroke-43" stroke="#F07F51"></path>
							                                <path d="M60,46.4516129 L60,52.2580645" id="Stroke-45" stroke="#F07F51"></path>
							                            </g>
							                        </g>
							                    </g>
							                </g>
							            </g>
							        </g>
							    </g>
							</svg>